<svg xmlns="http://www.w3.org/2000/svg" width="65.606" height="65.606" viewBox="0 0 65.606 65.606">
  <path id="target-2" d="M76.824,21.034a1.087,1.087,0,0,0-.808-.759l-6.67-1.507L67.838,12.1a1.088,1.088,0,0,0-1.831-.529l-7.671,7.673A31.039,31.039,0,1,0,68.875,29.781l7.675-7.675a1.089,1.089,0,0,0,.274-1.072ZM71.161,45.821A28.861,28.861,0,1,1,56.748,20.832l-3.523,3.523a1.079,1.079,0,0,0-.084.109A23.984,23.984,0,1,0,63.647,34.985a1.073,1.073,0,0,0,.114-.093l3.523-3.523a28.764,28.764,0,0,1,3.876,14.451ZM61.064,34.8a21.744,21.744,0,1,1-7.753-7.761l1.146,5.077-1.1,1.1A16.809,16.809,0,1,0,54.9,34.759l1.1-1.1ZM46.976,45.821a4.7,4.7,0,1,1-2.236-3.983l-3.214,3.214a1.088,1.088,0,1,0,1.539,1.539l3.214-3.214A4.644,4.644,0,0,1,46.976,45.821Zm-.669-5.55a6.885,6.885,0,1,0,1.539,1.539L53.354,36.3a14.622,14.622,0,1,1-1.539-1.539ZM66.733,28.842l-4.085,4.084-.613-.138-.024-.006-5.451-1.227-1.374-6.084L66.153,14.5l1.223,5.414a1.089,1.089,0,0,0,.822.822l5.414,1.223Z" transform="translate(-11.261 -11.25)" fill="#e6b31e"/>
</svg>
