<svg xmlns="http://www.w3.org/2000/svg" width="64.435" height="64.584" viewBox="0 0 64.435 64.584">
  <g id="support" transform="translate(-0.572)">
    <g id="Group_315" data-name="Group 315" transform="translate(0.573 10.417)">
      <g id="Group_314" data-name="Group 314" transform="translate(0)">
        <path id="Path_1325" data-name="Path 1325" d="M52.917,125.834,50.505,118.6a7.292,7.292,0,0,0-5.614-4.868l-6.962-1.267v-.54a10.484,10.484,0,0,0,3.105-2.757h2.1a3.129,3.129,0,0,0,3.125-3.125v-12.5a13.542,13.542,0,1,0-27.084,0v7.292a4.174,4.174,0,0,0,3.322,4.08,10.436,10.436,0,0,0,5.012,7.011v.54l-6.963,1.267a7.29,7.29,0,0,0-5.613,4.868l-.417,1.251L10.974,116.3a1.044,1.044,0,0,1,0-1.474l4.115-4.114-7.723-7.723-4.65,4.65a7.292,7.292,0,0,0,0,10.312l14.078,14.078a7.288,7.288,0,0,0,10.279.031l5.074-4.649-1.582-1.579ZM44.18,106.042a1.043,1.043,0,0,1-1.042,1.042h-.876a10.347,10.347,0,0,0,.679-2.17,4.126,4.126,0,0,0,1.239-.493Zm-1.042-3.415V99.04a2.065,2.065,0,0,1,0,3.588Zm-20.834,0a2.065,2.065,0,0,1,0-3.588Zm0-7v1.19a4.132,4.132,0,0,0-1.042.431v-3.7a11.458,11.458,0,1,1,22.917,0v3.7a4.094,4.094,0,0,0-1.042-.431v-1.19H42.1a11.461,11.461,0,0,1-8.155-3.378l-1.22-1.22-1.22,1.22a11.461,11.461,0,0,1-8.155,3.378Zm2.083,7.292V97.669a13.505,13.505,0,0,0,8.333-3.7,13.5,13.5,0,0,0,8.333,3.7v5.248a8.271,8.271,0,0,1-1.127,4.167H32.722v2.083h5.494a8.32,8.32,0,0,1-13.827-6.25Zm11.458,9.937v.049l-3.125,3.125L29.6,112.9v-.049a10.408,10.408,0,0,0,6.25,0Zm-18.934,6.4a5.21,5.21,0,0,1,4.009-3.478l7.281-1.323,4.518,4.518,4.517-4.517,7.28,1.323a5.208,5.208,0,0,1,4.009,3.478l1.5,4.493H28.481l-4.057-4.057-4.508,4.078a1.064,1.064,0,0,1-1.473,0L16.168,121.5Zm-9.549-13.32,4.777,4.777-1.131,1.131-4.777-4.777ZM25.63,130.56a5.209,5.209,0,0,1-7.366,0L4.186,116.481a5.209,5.209,0,0,1,0-7.366l.573-.573,4.777,4.777-.038.038a3.13,3.13,0,0,0,0,4.42l7.47,7.47a3.109,3.109,0,0,0,2.21.916,3.067,3.067,0,0,0,2.172-.879l.078-.07,4.8,4.8Zm2.135-1.958-4.789-4.789,1.376-1.244,4.78,4.78Z" transform="translate(-0.58 -80)" fill="#e6b31e"/>
      </g>
    </g>
    <g id="Group_317" data-name="Group 317" transform="translate(44.173)">
      <g id="Group_316" data-name="Group 316">
        <path id="Path_1326" data-name="Path 1326" d="M353.137,0H338.553a3.129,3.129,0,0,0-3.125,3.125v8.333a3.129,3.129,0,0,0,3.125,3.125h2.782l-1.077,6.282,10.052-6.282h2.826a3.129,3.129,0,0,0,3.125-3.125V3.125A3.129,3.129,0,0,0,353.137,0Zm1.042,11.458a1.043,1.043,0,0,1-1.042,1.042h-3.424L343.1,16.635l.709-4.134h-5.253a1.043,1.043,0,0,1-1.042-1.042V3.125a1.043,1.043,0,0,1,1.042-1.042h14.583a1.043,1.043,0,0,1,1.042,1.042Z" transform="translate(-335.428)" fill="#e6b31e"/>
      </g>
    </g>
    <g id="Group_319" data-name="Group 319" transform="translate(48.34 4.167)">
      <g id="Group_318" data-name="Group 318">
        <rect id="Rectangle_163" data-name="Rectangle 163" width="12.5" height="2.083" fill="#e6b31e"/>
      </g>
    </g>
    <g id="Group_321" data-name="Group 321" transform="translate(48.34 8.333)">
      <g id="Group_320" data-name="Group 320">
        <rect id="Rectangle_164" data-name="Rectangle 164" width="8.333" height="2.083" fill="#e6b31e"/>
      </g>
    </g>
    <g id="Group_323" data-name="Group 323" transform="translate(58.757 8.333)">
      <g id="Group_322" data-name="Group 322">
        <rect id="Rectangle_165" data-name="Rectangle 165" width="2.083" height="2.083" fill="#e6b31e"/>
      </g>
    </g>
    <g id="Group_325" data-name="Group 325" transform="translate(0.572 3.125)">
      <g id="Group_324" data-name="Group 324" transform="translate(0)">
        <path id="Path_1327" data-name="Path 1327" d="M32.715,24A29.148,29.148,0,0,0,4.332,46.547L2.358,43.256.572,44.328l3.661,6.1,6.1-3.661L9.263,44.981,6.44,46.675a27.091,27.091,0,0,1,34.3-19.384l.617-1.99A29.148,29.148,0,0,0,32.715,24Z" transform="translate(-0.572 -24)" fill="#e6b31e"/>
      </g>
    </g>
    <g id="Group_327" data-name="Group 327" transform="translate(53.758 19.403)">
      <g id="Group_326" data-name="Group 326">
        <path id="Path_1328" data-name="Path 1328" d="M419.779,152.678l-6.1-3.662-3.66,6.1,1.786,1.072,1.823-3.039a27.107,27.107,0,0,1-4.591,25.805l1.618,1.313a29.17,29.17,0,0,0,4.992-27.642l3.062,1.836Z" transform="translate(-409.036 -149.016)" fill="#e6b31e"/>
      </g>
    </g>
  </g>
</svg>
